<?xml version="1.0" encoding="UTF-8" standalone="no"?>
<!-- Created with Inkscape (http://www.inkscape.org/) -->

<svg
   width="210mm"
   height="297mm"
   viewBox="0 0 210 297"
   version="1.1"
   id="svg1"
   xml:space="preserve"
   inkscape:version="1.4.3 (0d15f75, 2025-12-25)"
   sodipodi:docname="Letterhead Logo.svg"
   xmlns:inkscape="http://www.inkscape.org/namespaces/inkscape"
   xmlns:sodipodi="http://sodipodi.sourceforge.net/DTD/sodipodi-0.dtd"
   xmlns="http://www.w3.org/2000/svg"
   xmlns:svg="http://www.w3.org/2000/svg"><sodipodi:namedview
     id="namedview1"
     pagecolor="#ffffff"
     bordercolor="#000000"
     borderopacity="0.25"
     inkscape:showpageshadow="2"
     inkscape:pageopacity="0.0"
     inkscape:pagecheckerboard="0"
     inkscape:deskcolor="#d1d1d1"
     inkscape:document-units="mm"
     inkscape:zoom="0.71891835"
     inkscape:cx="412.42514"
     inkscape:cy="338.70328"
     inkscape:window-width="1920"
     inkscape:window-height="1009"
     inkscape:window-x="1912"
     inkscape:window-y="-8"
     inkscape:window-maximized="1"
     inkscape:current-layer="layer1" /><defs
     id="defs1" /><g
     inkscape:label="Layer 1"
     inkscape:groupmode="layer"
     id="layer1"><g
       inkscape:label="Reference"
       id="layer1-4"
       transform="matrix(0.19459443,0,0,0.20542308,20.683818,61.775543)" /><path
       style="display:inline;fill:#000000;stroke-width:0.387826"
       d="m 80.365042,87.232949 c -2.10121,-0.303904 -3.841595,-0.84626 -3.873799,-1.207141 -0.01052,-0.117237 -0.02653,-0.847273 -0.03576,-1.622129 l -0.01659,-1.408804 0.515981,-7.39e-4 c 0.482736,-7.49e-4 0.53234,0.03873 0.769723,0.609486 0.332805,0.80031 1.094769,1.559442 1.97757,1.970261 0.599611,0.27903 0.861802,0.323343 1.666663,0.281563 0.774281,-0.04021 1.053521,-0.118503 1.474887,-0.413637 1.175431,-0.823338 1.263152,-2.036399 0.211816,-2.929347 -0.184146,-0.156316 -1.2949,-0.708127 -2.468357,-1.226084 -1.821269,-0.803888 -2.261764,-1.059732 -3.009379,-1.747871 -0.984566,-0.906234 -1.353069,-1.661387 -1.353069,-2.77281 0,-1.033401 0.363314,-1.821702 1.240681,-2.691991 1.802655,-1.788101 4.417088,-2.096501 7.50394,-0.885191 l 0.678158,0.266112 v 1.491648 1.491626 h -0.477092 c -0.427443,0 -0.493884,-0.05118 -0.638429,-0.491647 -0.366259,-1.116224 -1.860415,-2.130577 -3.138325,-2.130577 -2.114274,0 -3.141795,2.078032 -1.661498,3.360133 0.26239,0.227255 1.461892,0.856454 2.665567,1.398187 2.530791,1.139051 3.468032,1.817249 3.958621,2.864539 0.426204,0.909833 0.368924,2.251275 -0.13529,3.168189 -0.971538,1.766815 -3.61162,2.950749 -5.856019,2.626118 z M 91.929357,86.467 c 0,-0.41274 0.05749,-0.481084 0.56008,-0.665756 1.010133,-0.371181 1.010379,-0.372754 1.010379,-6.400258 v -5.322985 l -0.820916,7.6e-4 c -1.636913,0.0011 -2.554851,0.480851 -3.102416,1.620239 -0.290271,0.604051 -0.34574,0.647161 -0.848844,0.659878 l -0.538276,0.01266 0.08834,-1.114462 c 0.04861,-0.612947 0.125451,-1.453687 0.17079,-1.868337 l 0.08238,-0.753887 h 6.622027 6.622039 l 0.0705,0.294997 c 0.0388,0.162278 0.0882,0.988339 0.10984,1.835738 l 0.0394,1.540731 -0.52265,-1.69e-4 c -0.47735,-1.58e-4 -0.54935,-0.05087 -0.83062,-0.58441 -0.59162,-1.122525 -1.574968,-1.642603 -3.108256,-1.644091 L 96.78357,74.07691 v 5.477518 c 0,6.123465 -0.03248,5.923005 1.004548,6.208313 0.531744,0.146364 0.565912,0.186129 0.565912,0.659403 v 0.503689 h -3.212304 -3.212314 z m 12.278163,-0.0438 c 0,-0.473706 0.0339,-0.512996 0.56875,-0.660183 0.31281,-0.08612 0.63403,-0.268519 0.71384,-0.405458 0.0914,-0.156865 0.14511,-2.212608 0.14511,-5.558104 v -5.309298 l -0.38013,-0.274586 c -0.20906,-0.151071 -0.52405,-0.307767 -0.69999,-0.348312 -0.25081,-0.05773 -0.33154,-0.186055 -0.3739,-0.593962 -0.0297,-0.286143 -0.0252,-0.546672 0.0105,-0.578986 0.0352,-0.03219 2.6231,-0.05878 5.75095,-0.05878 h 5.68698 v 1.497061 c 0,0.823391 0.039,1.590395 0.0867,1.704445 0.0709,0.169887 -0.0275,0.207393 -0.54274,0.207393 -0.61849,0 -0.63454,-0.01087 -0.92606,-0.644828 -0.44973,-0.977596 -0.99384,-1.182372 -3.40791,-1.282576 l -1.92011,-0.07978 v 2.51134 2.511341 l 1.17785,-0.0032 c 1.59992,-0.0032 2.30451,-0.290396 2.54772,-1.035882 0.16196,-0.496375 0.21103,-0.534589 0.68719,-0.534663 l 0.51279,-7.3e-5 -0.0312,2.256425 -0.0312,2.256414 -0.42315,0.04432 c -0.38159,0.04 -0.45156,-0.01446 -0.71249,-0.556318 -0.37826,-0.785314 -0.8874,-0.985173 -2.50948,-0.985173 h -1.21811 v 2.49111 2.491131 l 1.74892,-7.39e-4 c 0.96191,-3.8e-4 2.00591,-0.06533 2.31999,-0.144201 0.68932,-0.173137 1.81185,-1.181907 2.08379,-1.872506 0.17615,-0.447365 0.22175,-0.473685 0.82064,-0.473685 h 0.63411 l -0.0931,0.819454 c -0.0512,0.45069 -0.16515,1.335701 -0.25317,1.966684 l -0.16005,1.147229 h -5.9063 -5.90625 z m 14.41971,-0.0053 c 0,-0.487236 0.0252,-0.515625 0.53537,-0.602563 1.09304,-0.186276 1.03509,0.147821 1.03509,-5.96908 0,-5.179071 -0.0143,-5.477729 -0.26783,-5.688637 -0.14731,-0.122482 -0.50067,-0.25729 -0.78524,-0.299693 -0.49107,-0.07324 -0.51739,-0.102895 -0.51739,-0.584401 v -0.507297 h 3.18039 3.18039 l -0.0533,0.513418 c -0.0416,0.4011 -0.1233,0.529555 -0.37318,0.587165 -0.17592,0.04053 -0.49093,0.197295 -0.7,0.348302 l -0.38012,0.274587 -2.2e-4,5.529968 -2.4e-4,5.529936 1.89192,-0.07219 c 1.36068,-0.05192 2.01626,-0.132803 2.33474,-0.288306 0.58726,-0.286649 1.31888,-1.066391 1.65463,-1.763448 0.25455,-0.528468 0.30737,-0.563874 0.84093,-0.563874 h 0.56931 l -0.086,0.622772 c -0.0473,0.34254 -0.16343,1.242283 -0.25809,1.999452 l -0.17209,1.376669 -5.81451,0.03419 -5.81453,0.03419 z m 13.99138,-0.0011 c 0,-0.480407 0.0293,-0.514906 0.50767,-0.597317 0.2792,-0.04812 0.63256,-0.20218 0.78522,-0.342381 0.26576,-0.244046 0.27757,-0.480324 0.27757,-5.547244 0,-5.131211 -0.009,-5.302713 -0.29172,-5.632926 -0.16673,-0.194677 -0.50316,-0.377006 -0.78523,-0.425604 -0.46235,-0.07957 -0.49351,-0.117237 -0.49351,-0.594891 v -0.50978 h 3.14093 3.14094 v 0.510231 c 0,0.425457 -0.0555,0.523033 -0.33374,0.587165 -0.18352,0.04232 -0.50478,0.200482 -0.71385,0.3515 l -0.38012,0.274597 v 5.497168 5.497168 l 1.67755,-7.39e-4 c 0.92264,-3.69e-4 1.90239,-0.05825 2.17723,-0.128454 0.74698,-0.190878 1.46389,-0.804691 1.98152,-1.696583 0.44636,-0.769062 0.48178,-0.796501 1.02772,-0.796501 0.51278,0 0.55864,0.02744 0.49257,0.295008 -0.0636,0.25653 -0.50366,3.484662 -0.50366,3.69252 0,0.04232 -2.6341,0.07693 -5.85354,0.07693 h -5.85355 z m 14.047,0.322721 c -0.18995,-0.454289 0.0175,-0.762635 0.65108,-0.977427 0.41547,-0.140391 0.71819,-0.350338 0.87493,-0.606763 0.13189,-0.215604 1.29149,-3.090685 2.57703,-6.389039 l 2.33734,-5.996994 1.29362,-0.0011 1.29357,-0.0011 2.48982,6.120405 c 1.38142,3.395856 2.63661,6.282947 2.81962,6.48556 0.19035,0.210633 0.53768,0.400983 0.82093,0.449792 0.45961,0.07926 0.49108,0.117237 0.49108,0.594458 v 0.509852 h -3.22093 -3.22093 l 0.0442,-0.490149 c 0.0405,-0.44916 0.0865,-0.496375 0.54884,-0.56475 0.66924,-0.09899 0.85177,-0.216385 0.85177,-0.547791 0,-0.293371 -0.80967,-2.281858 -1.04363,-2.563051 -0.10505,-0.126281 -0.74522,-0.158131 -2.63675,-0.131168 l -2.49795,0.03567 -0.47096,1.114461 c -0.25906,0.612947 -0.47508,1.274608 -0.48009,1.470393 -0.009,0.397027 0.3238,0.627374 0.90955,0.627374 0.33217,0 0.3663,0.04886 0.3663,0.524457 v 0.524447 h -2.36017 c -1.91279,0 -2.37501,-0.03546 -2.43837,-0.187131 z m 8.63773,-6.532343 c -0.22502,-0.522811 -0.6857,-1.615068 -1.02374,-2.427251 l -0.61464,-1.476683 -1.00863,2.427251 -1.00865,2.427241 h 2.03238 2.03239 z m 9.01007,6.262336 c 0,-0.391781 0.0664,-0.482592 0.46399,-0.635246 0.86385,-0.331617 0.83354,-0.113258 0.82411,-5.934529 -0.009,-5.921665 0.0335,-5.650624 -0.95164,-5.977787 -0.4293,-0.142565 -0.47923,-0.211045 -0.47923,-0.65725 v -0.498045 l 3.89044,0.0021 c 4.15192,0.0021 5.22447,0.112541 6.40951,0.657672 0.79678,0.366569 1.49275,0.970483 1.88365,1.634518 0.41441,0.704001 0.43621,2.641336 0.0376,3.343353 -0.52681,0.927732 -1.44233,1.599091 -2.74811,2.015177 l -0.46499,0.148179 1.57188,2.032241 c 2.20058,2.844973 2.33048,2.982598 2.98588,3.162923 0.53436,0.147092 0.56828,0.186424 0.56828,0.660057 v 0.503688 h -2.01289 -2.01286 l -0.37853,-0.37689 c -0.20818,-0.207309 -1.14517,-1.505314 -2.0822,-2.884463 l -1.70368,-2.507214 h -0.61629 -0.61631 v 2.003061 c 0,2.307746 0.0849,2.53231 1.00719,2.667761 0.54338,0.07978 0.5633,0.100573 0.5633,0.590405 v 0.507689 h -3.06956 -3.06952 z m 6.93798,-6.947077 c 1.27563,-0.34789 1.91371,-1.253185 1.91371,-2.715167 0,-0.940332 -0.24494,-1.515688 -0.84163,-1.976752 -0.57798,-0.446616 -1.26998,-0.620049 -2.47775,-0.620978 l -0.9637,-7.39e-4 v 2.75336 2.753338 h 0.83071 c 0.45687,0 1.14928,-0.08685 1.53866,-0.193073 z"
       id="path1"
       sodipodi:nodetypes="cscccsssscssssscccsssssssccsssccsccsscccsccscscscscccscssscccscscscsccccccsscccscscccssssccsccccsssscscccssscccscsscsscccsssssccscccssscccscsscsscscccscccsssscccssssscscsscsccsscccccssscssccsssscssscccsccccssscccssssscccsss" /><path
       style="fill:#000000;stroke-width:0.349241"
       d="m 55.156286,105.48105 c -2.70038,-0.18799 -4.67205,-0.47246 -11.85148,-1.70987 -2.18398,-0.3764 -4.93303,-0.79774 -6.10901,-0.93629 -6.335418,-0.7464 -12.769666,-0.52819 -17.196873,0.5832 -0.75599,0.18978 -1.374251,0.315 -1.373911,0.27825 3.37e-4,-0.0367 0.37146,-0.3251 0.824716,-0.64076 3.62716,-2.52614 8.237535,-3.765559 14.594219,-3.923429 3.330089,-0.0827 5.408879,0.0485 9.627399,0.60751 3.73157,0.494509 6.01936,0.537619 7.27139,0.13701 1.06301,-0.34013 1.81167,-0.83659 2.64929,-1.75683 2.2991,-2.52589 2.40241,-5.74328 0.27118,-8.44576 -0.93667,-1.18774 -2.15547,-2.10456 -4.49774,-3.38335 -1.14939,-0.62753 -2.77094,-1.51147 -3.60344,-1.964324 -1.55481,-0.845771 -2.57627,-1.64531 -2.88993,-2.262085 -0.49004,-0.963583 0.0542,-2.021985 1.39592,-2.714799 0.93451,-0.482541 2.83979,-0.665491 5.12467,-0.492088 1.62752,0.123519 2.49593,0.348084 3.44218,0.890134 1.04638,0.599416 5.281134,3.295125 7.192894,4.578778 l 1.72627,1.159094 v 8.28567 8.285659 l 0.8247,0.10307 c 2.08072,0.26003 7.36578,0.0913 8.76643,-0.27988 l 0.24438,-0.0648 -0.24438,0.20281 c -0.50323,0.41766 -3.22864,1.68538 -4.64284,2.15961 -2.64846,0.8881 -4.8856,1.2338 -8.43043,1.3027 -1.343994,0.0261 -2.746004,0.0264 -3.115604,7.1e-4 z m -26.664803,-14.301879 -0.03158,-6.758186 -1.686475,1.365416 c -2.012592,1.62945 -1.625651,1.53456 -6.040081,1.4811 l -3.083708,-0.0373 2.411717,-1.93418 c 1.326444,-1.063795 5.188262,-4.143945 8.581818,-6.844771 3.393555,-2.700828 8.531032,-6.790179 11.416612,-9.087446 3.20585,-2.552245 5.29684,-4.137161 5.37592,-4.074806 0.0712,0.05613 3.29108,2.66777 7.1553,5.803651 3.86423,3.135885 8.510144,6.90046 10.324254,8.365725 6.61573,5.343607 9.71283,7.854687 9.71293,7.875147 5e-5,0.0115 -1.69133,-0.007 -3.75862,-0.0412 l -3.75876,-0.0621 -3.84708,-3.163078 c -2.1159,-1.73968 -5.276614,-4.341914 -7.023794,-5.782729 -7.4206,-6.119427 -8.99799,-7.405621 -9.1379,-7.450995 -0.0813,-0.02637 -1.76974,1.27609 -3.75212,2.894342 -3.86414,3.154377 -4.49199,3.806217 -5.00903,5.200388 -0.89627,2.416778 -0.45085,4.698942 1.2558,6.434332 1.05976,1.0776 2.4145,1.94365 5.8226,3.72221 3.29837,1.72129 4.39136,2.4519 4.9085,3.28107 0.50364,0.80754 0.61856,1.31534 0.45088,1.99244 -0.26719,1.07896 -1.60757,2.04234 -3.58007,2.57311 -0.77009,0.20722 -1.42103,0.23143 -6.53664,0.24318 -5.821656,0.0134 -6.614171,0.0644 -9.315213,0.5997 l -0.82368,0.16324 z"
       id="path2"
       sodipodi:nodetypes="csssscsssssssssssscccsccsssccccsccssssscsccsssssssssscscc" /><path
       style="display:none;fill:#000000;stroke-width:0.349241"
       d="m 30.830783,64.007073 c -0.724636,-0.1755 -1.485279,-0.73123 -1.839471,-1.34393 -0.338744,-0.58595 -0.3393,-0.5908 -0.378332,-3.28898 l -0.03908,-2.70218 h 0.741624 0.741625 v 2.46639 c 0,2.36204 0.01167,2.48424 0.278889,2.88852 0.551717,0.83512 1.870504,0.95504 2.536016,0.2306 0.441391,-0.48047 0.483962,-0.77643 0.483962,-3.36476 v -2.22075 h 0.743581 0.743582 l -0.0424,2.64007 c -0.03916,2.43897 -0.06297,2.67934 -0.312403,3.15603 -0.654425,1.25063 -2.186508,1.89526 -3.657585,1.53899 z m 18.546931,-0.0103 c -2.361727,-0.49072 -3.664187,-2.84574 -2.828722,-5.11473 0.349332,-0.94873 0.865449,-1.51594 1.807916,-1.98686 0.753859,-0.37669 0.912078,-0.40921 1.98108,-0.40723 1.051282,0.002 1.241052,0.0401 1.995175,0.40139 0.58153,0.27855 0.80567,0.44686 0.74168,0.55691 -0.62162,1.06894 -0.6692,1.11833 -0.88559,0.9192 -0.833053,-0.76659 -2.756128,-0.75606 -3.599791,0.0197 -0.899385,0.82701 -0.934938,2.7798 -0.06602,3.62656 0.691676,0.67403 1.65159,0.88749 2.738961,0.60908 l 0.54282,-0.13904 v -0.73903 -0.73902 l -0.885802,0.0394 -0.885806,0.0394 -0.03723,-0.59014 -0.03723,-0.59013 1.625582,-2e-5 1.625586,-1e-5 -0.0153,1.57661 c -0.0142,1.45684 -0.0354,1.59315 -0.27991,1.79444 -0.6974,0.57422 -2.49047,0.94092 -3.537317,0.72342 z m 45.204603,-0.0187 c -0.63839,-0.0999 -1.7196,-0.60229 -1.97823,-0.91917 -0.0909,-0.11143 -0.0547,-0.30072 0.12671,-0.66239 0.25468,-0.50761 0.41262,-0.61573 0.55566,-0.3804 0.0422,0.0693 0.28805,0.2357 0.54652,0.36978 1.38267,0.71726 2.69017,0.48963 2.69017,-0.46838 0,-0.36833 -0.34923,-0.6094 -1.65198,-1.14037 -0.80666,-0.32878 -1.34759,-0.63677 -1.63923,-0.93332 -0.41666,-0.42368 -0.4353,-0.48012 -0.4353,-1.31913 0,-0.86616 0.005,-0.88212 0.50124,-1.35193 0.87637,-0.83124 2.5044,-0.94302 3.81704,-0.26209 0.62721,0.32537 0.68037,0.42379 0.45623,0.84487 -0.35908,0.6746 -0.34496,0.66955 -0.96972,0.34791 -1.11656,-0.57477 -2.17567,-0.5155 -2.40764,0.13475 -0.18308,0.51321 0.12788,0.80829 1.42336,1.35061 0.6777,0.28369 1.39941,0.63692 1.60382,0.78492 0.83384,0.60373 1.00649,1.94431 0.36125,2.80454 -0.5195,0.69257 -1.69047,1.00475 -2.99995,0.79982 z m -56.461279,-3.65186 v -3.67592 l 1.924339,0.042 c 1.762809,0.0384 1.975616,0.0681 2.535239,0.35255 0.797982,0.40571 1.155903,1.02684 1.158702,2.01078 0.0023,0.84274 -0.14472,1.28412 -0.586119,1.7585 -0.572148,0.61489 -0.942164,0.73531 -2.307669,0.75098 l -1.256291,0.0137 -10e-4,1.21132 -0.001,1.21132 h -0.733083 -0.73308 z m 3.862245,-0.31911 c 0.351684,-0.35762 0.435705,-1.20751 0.153573,-1.55345 -0.280794,-0.34428 -0.913865,-0.53915 -1.751557,-0.53915 h -0.798094 v 1.25796 1.25795 l 1.044721,-0.0557 c 0.912773,-0.0487 1.083451,-0.0952 1.35136,-0.36756 z m 14.46479,0.33003 v -3.66501 l 1.98543,0.005 c 2.06325,0.005 2.66972,0.11538 3.16723,0.57285 0.64926,0.59707 0.89998,1.82966 0.54692,2.68886 -0.15804,0.38462 -0.86756,1.12056 -1.1836,1.22769 -0.095,0.0322 0.17091,0.5478 0.72124,1.39828 0.47949,0.74098 0.87179,1.36741 0.87179,1.39206 0,0.0247 -0.37112,0.0439 -0.82471,0.0429 l -0.82472,-0.002 -0.72641,-1.14725 c -1.01343,-1.60055 -0.93104,-1.52668 -1.64733,-1.47691 l -0.61968,0.043 v 1.29251 1.29249 h -0.73308 -0.73308 z m 4.10908,-0.60351 c 0.37127,-0.43891 0.36929,-0.96537 -0.005,-1.40841 -0.27875,-0.32969 -0.35824,-0.35092 -1.46616,-0.39165 l -1.17143,-0.043 v 1.14495 1.14496 l 1.17675,-0.0523 c 1.1026,-0.049 1.19499,-0.0739 1.46616,-0.39446 z m 4.56615,4.14428 c 3.3e-4,-0.0341 0.65483,-1.65547 1.45443,-3.60288 l 1.45382,-3.54077 h 0.81356 0.81356 l 1.39238,3.39541 c 0.7658,1.86747 1.42155,3.48877 1.45721,3.60288 0.0562,0.1798 -0.0369,0.20526 -0.69741,0.19086 l -0.76224,-0.0171 -0.32734,-0.79092 -0.32734,-0.79092 -1.57304,-0.0345 -1.57303,-0.0345 -0.35996,0.82589 -0.35996,0.82588 -0.70262,0.0154 c -0.38644,0.009 -0.70235,-0.012 -0.70202,-0.0459 z m 4.52738,-3.44759 c -0.77546,-1.95852 -0.84106,-2.08732 -0.93347,-1.8325 -0.0495,0.13663 -0.29505,0.73765 -0.54553,1.33555 l -0.45543,1.08708 h 1.08404 1.08404 z m 5.61314,-0.16595 v -3.61357 l 1.985434,0.0417 c 1.93705,0.0408 2.00137,0.0507 2.64016,0.4105 1.32312,0.74519 1.92464,1.88921 1.82324,3.46757 -0.0694,1.08082 -0.37332,1.73087 -1.12275,2.40165 -0.82285,0.73651 -1.48943,0.90568 -3.5685,0.90568 h -1.757584 z m 3.740684,2.13352 c 0.72327,-0.33398 1.17643,-0.99294 1.24284,-1.80728 0.13939,-1.70836 -0.80503,-2.6677 -2.63153,-2.67334 l -0.88583,-0.003 v 2.36052 2.3605 l 0.88583,-0.003 c 0.59948,-0.002 1.04835,-0.0778 1.38869,-0.23495 z m 5.72829,-2.12283 v -3.6029 h 2.47415 2.47415 v 0.6212 0.62118 h -1.74106 -1.74108 v 0.86966 0.86966 h 1.4967 1.49672 v 0.6212 0.62118 h -1.51899 -1.51901 l 0.0223,0.86967 0.0222,0.86964 1.80214,2e-5 h 1.80217 v 0.6212 0.62118 h -2.53525 -2.53524 z m -61.273389,-8.77938 c -1.798193,-0.28797 -3.287593,-0.80189 -3.315155,-1.14385 -0.0088,-0.11109 -0.02271,-0.80285 -0.03055,-1.53708 l -0.01417,-1.33494 0.441577,-7e-4 c 0.413121,-7.1e-4 0.455568,0.0367 0.658716,0.57753 0.284814,0.75835 0.936892,1.47768 1.692379,1.86696 0.513137,0.2644 0.73752,0.30639 1.426307,0.2668 0.662621,-0.0381 0.901596,-0.11229 1.262197,-0.39195 1.005922,-0.78017 1.080988,-1.92963 0.181267,-2.77576 -0.157592,-0.14812 -1.108158,-0.671 -2.112394,-1.1618 -1.558619,-0.76174 -1.935586,-1.00417 -2.57539,-1.65623 -0.842577,-0.85872 -1.157932,-1.57428 -1.157932,-2.62743 0,-0.97922 0.31092,-1.72619 1.061755,-2.55085 1.542696,-1.69435 3.780094,-1.98658 6.421786,-0.83878 l 0.580357,0.25216 v 1.41344 1.41342 h -0.408292 c -0.365803,0 -0.422657,-0.0485 -0.546356,-0.46587 -0.313444,-1.0577 -1.592125,-2.01887 -2.68574,-2.01887 -1.809373,0 -2.688717,1.96908 -1.421889,3.18396 0.224548,0.21534 1.251068,0.81155 2.281156,1.32488 2.165823,1.07933 2.967898,1.72197 3.387737,2.71435 0.364739,0.86213 0.315719,2.13324 -0.115776,3.00208 -0.831434,1.67418 -3.090784,2.79604 -5.011509,2.48843 z m 9.8966,-0.72579 c 0,-0.3911 0.04922,-0.45586 0.479307,-0.63085 0.864464,-0.35172 0.864675,-0.35321 0.864675,-6.06469 v -5.0439 l -0.702535,7.2e-4 c -1.400846,10e-4 -2.186411,0.45564 -2.655004,1.53529 -0.248418,0.57238 -0.295885,0.61323 -0.726434,0.62528 l -0.460646,0.012 0.07564,-1.05603 c 0.0416,-0.58081 0.107356,-1.37747 0.146154,-1.77038 l 0.07051,-0.71436 h 5.667055 5.667057 l 0.06032,0.27953 c 0.03318,0.15377 0.07546,0.93652 0.09395,1.73949 l 0.03365,1.45995 -0.447276,-1.6e-4 c -0.408512,-1.5e-4 -0.47012,-0.0482 -0.710837,-0.55377 -0.5063,-1.06367 -1.347834,-1.55648 -2.66001,-1.55789 l -0.641447,-7e-4 v 5.19033 c 0,5.80241 -0.02776,5.61246 0.859684,5.88281 0.455057,0.13869 0.484298,0.17637 0.484298,0.62483 v 0.47728 H 36.105064 33.35601 Z m 10.507501,-0.0415 c 0,-0.44887 0.02898,-0.4861 0.486726,-0.62557 0.2677,-0.0816 0.542605,-0.25444 0.610902,-0.3842 0.07824,-0.14864 0.124179,-2.0966 0.124179,-5.26669 v -5.03093 l -0.325305,-0.26019 c -0.178916,-0.14315 -0.448489,-0.29163 -0.599046,-0.33005 -0.214636,-0.0547 -0.283729,-0.1763 -0.319978,-0.56282 -0.02544,-0.27114 -0.02161,-0.51801 0.0085,-0.54863 0.03011,-0.0305 2.244824,-0.0557 4.921591,-0.0557 h 4.866845 v 1.41857 c 0,0.78022 0.0334,1.50701 0.0742,1.61508 0.0607,0.16098 -0.0235,0.19652 -0.46447,0.19652 -0.5293,0 -0.54303,-0.0103 -0.79251,-0.61102 -0.38488,-0.92634 -0.850521,-1.12038 -2.916443,-1.21533 l -1.64321,-0.0756 v 2.37967 2.37967 l 1.007986,-0.003 c 1.369192,-0.003 1.972167,-0.27517 2.180309,-0.98157 0.138601,-0.47035 0.180605,-0.50656 0.588088,-0.50663 l 0.43884,-7e-5 -0.0267,2.13812 -0.0267,2.13811 -0.362126,0.042 c -0.326565,0.0379 -0.386438,-0.0137 -0.60974,-0.52715 -0.323711,-0.74414 -0.759426,-0.93352 -2.147576,-0.93352 h -1.042456 v 2.3605 2.36052 l 1.49671,-7e-4 c 0.823187,-3.6e-4 1.716631,-0.0619 1.985426,-0.13664 0.589902,-0.16406 1.550552,-1.11994 1.783272,-1.77433 0.15075,-0.42391 0.18977,-0.44885 0.70229,-0.44885 h 0.54267 l -0.0797,0.77649 c -0.0438,0.42706 -0.14134,1.26567 -0.21666,1.86357 l -0.13697,1.08708 h -5.054541 -5.054495 z m 12.340204,-0.005 c 0,-0.46169 0.0216,-0.48859 0.45817,-0.57097 0.93541,-0.17651 0.88581,0.14007 0.88581,-5.65612 0,-4.90753 -0.0122,-5.19053 -0.2292,-5.39038 -0.12607,-0.11606 -0.42847,-0.2438 -0.672,-0.28398 -0.42025,-0.0694 -0.44278,-0.0975 -0.44278,-0.55376 v -0.4807 h 2.72174 2.72174 l -0.0456,0.4865 c -0.0356,0.38007 -0.10552,0.50179 -0.31937,0.55638 -0.15055,0.0384 -0.42013,0.18695 -0.59905,0.33004 l -0.3253,0.26019 -1.9e-4,5.24003 -2e-4,5.24 1.61908,-0.0684 c 1.16445,-0.0492 1.72549,-0.12584 1.99804,-0.27319 0.50257,-0.27162 1.12868,-1.01048 1.41601,-1.67099 0.21784,-0.50076 0.26305,-0.53431 0.71966,-0.53431 h 0.48721 l -0.0736,0.59012 c -0.0405,0.32458 -0.13986,1.17715 -0.22087,1.89462 l -0.14727,1.30449 -4.97599,0.0324 -4.976,0.0324 z m 11.97366,-10e-4 c 0,-0.45522 0.0251,-0.48791 0.43445,-0.566 0.23894,-0.0456 0.54134,-0.19158 0.67199,-0.32443 0.22743,-0.23125 0.23754,-0.45514 0.23754,-5.2564 0,-4.86218 -0.008,-5.02469 -0.24965,-5.33759 -0.14269,-0.18447 -0.4306,-0.35724 -0.67199,-0.40329 -0.39568,-0.0754 -0.42234,-0.11109 -0.42234,-0.5637 v -0.48312 h 2.68797 2.68797 v 0.48348 c 0,0.40315 -0.0475,0.49561 -0.28561,0.55638 -0.15705,0.0401 -0.43198,0.18997 -0.6109,0.33307 l -0.3253,0.2602 v 5.20895 5.20895 l 1.43562,-7e-4 c 0.78959,-3.5e-4 1.628054,-0.0552 1.863254,-0.12172 0.63926,-0.18087 1.25278,-0.7625 1.69576,-1.60763 0.38199,-0.72874 0.4123,-0.75474 0.87951,-0.75474 0.43883,0 0.47808,0.026 0.42154,0.27954 -0.0544,0.24308 -0.43103,3.30196 -0.43103,3.49892 0,0.0401 -2.25423,0.0729 -5.009394,0.0729 h -5.00939 z m 12.021254,0.3058 c -0.16256,-0.43047 0.015,-0.72265 0.55718,-0.92618 0.35556,-0.13303 0.61462,-0.33197 0.74876,-0.57495 0.11287,-0.2043 1.10524,-2.92864 2.20539,-6.05406 l 2.00027,-5.68257 1.10706,-10e-4 1.10702,-10e-4 2.13076,5.79951 c 1.1822,3.21781 2.25638,5.95353 2.413,6.14552 0.1629,0.19959 0.46014,0.37996 0.70254,0.42621 0.39333,0.0751 0.42026,0.11109 0.42026,0.56329 v 0.48312 h -2.75643 -2.75644 l 0.0378,-0.46445 c 0.0347,-0.42561 0.074,-0.47035 0.46969,-0.53514 0.57273,-0.0938 0.72894,-0.20504 0.72894,-0.51907 0,-0.27799 -0.69291,-2.16222 -0.89313,-2.42867 -0.0899,-0.11966 -0.63775,-0.14984 -2.2565,-0.12429 l -2.13771,0.0338 -0.40304,1.05603 c -0.2217,0.58081 -0.40657,1.20778 -0.41086,1.3933 -0.008,0.37621 0.27711,0.59448 0.77838,0.59448 0.28427,0 0.31348,0.0463 0.31348,0.49696 v 0.49695 h -2.01981 c -1.63694,0 -2.0325,-0.0336 -2.08672,-0.17732 z m 7.39206,-6.18985 c -0.19257,-0.4954 -0.58681,-1.53039 -0.8761,-2.29999 l -0.526,-1.39926 -0.86318,2.29999 -0.86319,2.29998 h 1.73929 1.73929 z m 7.71071,5.934 c 0,-0.37124 0.0568,-0.45729 0.39708,-0.60194 0.73927,-0.31423 0.71333,-0.10732 0.70526,-5.62338 -0.008,-5.61119 0.0287,-5.35436 -0.8144,-5.66437 -0.36739,-0.13509 -0.41012,-0.19998 -0.41012,-0.62279 v -0.472 l 3.32939,0.002 c 3.553163,0.002 4.471043,0.10664 5.485183,0.62319 0.68188,0.34735 1.27748,0.9196 1.61201,1.54882 0.35464,0.66709 0.3733,2.50285 0.0322,3.16806 -0.45084,0.87909 -1.23433,1.51525 -2.3518,1.90952 l -0.39793,0.14041 1.34519,1.92569 c 1.88323,2.69581 1.9944,2.82622 2.55528,2.99709 0.4573,0.13938 0.48633,0.17665 0.48633,0.62545 v 0.47728 h -1.72261 -1.72258 l -0.32394,-0.35713 c -0.17816,-0.19644 -0.98002,-1.42639 -1.78192,-2.73323 l -1.45799,-2.37576 h -0.527413 -0.52743 v 1.89804 c 0,2.18675 0.0727,2.39954 0.861943,2.52789 0.46502,0.0756 0.48206,0.0953 0.48206,0.55945 v 0.48107 h -2.626893 -2.62686 z m 5.937443,-6.58284 c 1.09167,-0.32965 1.63773,-1.18748 1.63773,-2.57281 0,-0.89103 -0.20962,-1.43622 -0.72026,-1.87311 -0.49463,-0.4232 -1.08683,-0.58754 -2.12043,-0.58842 l -0.824723,-7e-4 v 2.609 2.60898 h 0.71091 c 0.390993,0 0.983543,-0.0823 1.316773,-0.18295 z M 72.453683,31.875103 c -2.70038,-0.18799 -4.67205,-0.47246 -11.85148,-1.70987 -2.18398,-0.3764 -4.93303,-0.79774 -6.10901,-0.93629 -6.335418,-0.7464 -12.769666,-0.52819 -17.196873,0.5832 -0.75599,0.18978 -1.374251,0.315 -1.373911,0.27825 3.37e-4,-0.0367 0.37146,-0.3251 0.824716,-0.64076 3.62716,-2.52614 8.237535,-3.76556 14.594219,-3.92343 3.330089,-0.0827 5.408879,0.0485 9.627399,0.60751 3.73157,0.49451 6.01936,0.53762 7.27139,0.13701 1.06301,-0.34013 1.81167,-0.83659 2.64929,-1.75683 2.2991,-2.52589 2.40241,-5.74328 0.27118,-8.44576 -0.93667,-1.18774 -2.15547,-2.10456 -4.49774,-3.38335 -1.14939,-0.62753 -2.77094,-1.51147 -3.60344,-1.964324 -1.55481,-0.845771 -2.57627,-1.64531 -2.88993,-2.262085 -0.49004,-0.963583 0.0542,-2.021985 1.39592,-2.714799 0.93451,-0.482541 2.83979,-0.665491 5.12467,-0.492088 1.62752,0.123519 2.49593,0.348084 3.44218,0.890134 1.04638,0.599416 5.281134,3.295125 7.192894,4.578778 l 1.72627,1.159094 v 8.28567 8.28566 l 0.8247,0.10307 c 2.08072,0.26003 7.36578,0.0913 8.76643,-0.27988 l 0.24438,-0.0648 -0.24438,0.20281 c -0.50323,0.41766 -3.22864,1.68538 -4.64284,2.15961 -2.64846,0.8881 -4.8856,1.2338 -8.43043,1.3027 -1.343994,0.0261 -2.746004,0.0264 -3.115604,7.1e-4 z M 45.78888,17.573223 45.7573,10.815037 44.070825,12.180453 c -2.012592,1.62945 -1.625651,1.53456 -6.040081,1.4811 l -3.083708,-0.0373 2.411717,-1.93418 c 1.326444,-1.063795 5.188262,-4.143945 8.581818,-6.844771 3.393555,-2.700828 8.531032,-6.790179 11.416612,-9.087446 3.20585,-2.552245 5.29684,-4.137161 5.37592,-4.074806 0.0712,0.05613 3.29108,2.66777 7.1553,5.803651 3.86423,3.13588497 8.510144,6.90046 10.324254,8.365725 6.61573,5.343607 9.71283,7.854687 9.71293,7.875147 5e-5,0.0115 -1.69133,-0.007 -3.75862,-0.0412 l -3.75876,-0.0621 -3.84708,-3.163078 c -2.1159,-1.73968 -5.276614,-4.341914 -7.023794,-5.782729 -7.4206,-6.119427 -8.99799,-7.405621 -9.1379,-7.450995 -0.0813,-0.02637 -1.76974,1.27609 -3.75212,2.89434197 C 54.783173,3.27619 54.155323,3.92803 53.638283,5.322201 c -0.89627,2.416778 -0.45085,4.698942 1.2558,6.434332 1.05976,1.0776 2.4145,1.94365 5.8226,3.72221 3.29837,1.72129 4.39136,2.4519 4.9085,3.28107 0.50364,0.80754 0.61856,1.31534 0.45088,1.99244 -0.26719,1.07896 -1.60757,2.04234 -3.58007,2.57311 -0.77009,0.20722 -1.42103,0.23143 -6.53664,0.24318 -5.821656,0.0134 -6.614171,0.0644 -9.315213,0.5997 l -0.82368,0.16324 z"
       id="path3" /><path
       style="display:none;fill:#000000;stroke-width:0.349241"
       d="m 105.54082,56.278448 c -0.72464,-0.1755 -1.48528,-0.73123 -1.83947,-1.34393 -0.33874,-0.58595 -0.3393,-0.5908 -0.37833,-3.28898 l -0.0391,-2.70218 h 0.74162 0.74163 v 2.46639 c 0,2.36204 0.0117,2.48424 0.27889,2.88852 0.55171,0.83512 1.8705,0.95504 2.53601,0.2306 0.44139,-0.48047 0.48396,-0.77643 0.48396,-3.36476 v -2.22075 h 0.74358 0.74359 l -0.0424,2.64007 c -0.0392,2.43897 -0.063,2.67934 -0.31241,3.15603 -0.65442,1.25063 -2.1865,1.89526 -3.65758,1.53899 z m 18.54693,-0.0103 c -2.36173,-0.49072 -3.66419,-2.84574 -2.82872,-5.11473 0.34933,-0.94873 0.86545,-1.51594 1.80792,-1.98686 0.75385,-0.37669 0.91207,-0.40921 1.98108,-0.40723 1.05128,0.002 1.24105,0.0401 1.99517,0.40139 0.58153,0.27855 0.80567,0.44686 0.74168,0.55691 -0.62162,1.06894 -0.6692,1.11833 -0.88559,0.9192 -0.83305,-0.76659 -2.75613,-0.75606 -3.59979,0.0197 -0.89939,0.82701 -0.93494,2.7798 -0.066,3.62656 0.69168,0.67403 1.65159,0.88749 2.73896,0.60908 l 0.54282,-0.13904 v -0.73903 -0.73902 l -0.8858,0.0394 -0.88581,0.0394 -0.0372,-0.59014 -0.0372,-0.59013 1.62558,-2e-5 1.62559,-1e-5 -0.0153,1.57661 c -0.0142,1.45684 -0.0354,1.59315 -0.27991,1.79444 -0.6974,0.57422 -2.49047,0.94092 -3.53732,0.72342 z m 45.2046,-0.0187 c -0.63839,-0.0999 -1.7196,-0.60229 -1.97823,-0.91917 -0.0909,-0.11143 -0.0547,-0.30072 0.12671,-0.66239 0.25468,-0.50761 0.41262,-0.61573 0.55566,-0.3804 0.0422,0.0693 0.28805,0.2357 0.54652,0.36978 1.38267,0.71726 2.69017,0.48963 2.69017,-0.46838 0,-0.36833 -0.34923,-0.6094 -1.65198,-1.14037 -0.80666,-0.32878 -1.34759,-0.63677 -1.63923,-0.93332 -0.41666,-0.42368 -0.4353,-0.48012 -0.4353,-1.31913 0,-0.86616 0.005,-0.88212 0.50124,-1.35193 0.87637,-0.83124 2.5044,-0.94302 3.81704,-0.26209 0.62721,0.32537 0.68037,0.42379 0.45623,0.84487 -0.35908,0.6746 -0.34496,0.66955 -0.96972,0.34791 -1.11656,-0.57477 -2.17567,-0.5155 -2.40764,0.13475 -0.18308,0.51321 0.12788,0.80829 1.42336,1.35061 0.6777,0.28369 1.39941,0.63692 1.60382,0.78492 0.83384,0.60373 1.00649,1.94431 0.36125,2.80454 -0.5195,0.69257 -1.69047,1.00475 -2.99995,0.79982 z m -56.46127,-3.65186 v -3.67592 l 1.92433,0.042 c 1.76281,0.0384 1.97562,0.0681 2.53524,0.35255 0.79799,0.40571 1.15591,1.02684 1.15871,2.01078 0.002,0.84274 -0.14472,1.28412 -0.58612,1.7585 -0.57215,0.61489 -0.94217,0.73531 -2.30767,0.75098 l -1.25629,0.0137 -10e-4,1.21132 -0.001,1.21132 h -0.73309 -0.73308 z m 3.86224,-0.31911 c 0.35168,-0.35762 0.43571,-1.20751 0.15357,-1.55345 -0.28079,-0.34428 -0.91386,-0.53915 -1.75155,-0.53915 h -0.7981 v 1.25796 1.25795 l 1.04472,-0.0557 c 0.91278,-0.0487 1.08345,-0.0952 1.35136,-0.36756 z m 14.46479,0.33003 v -3.66501 l 1.98543,0.005 c 2.06325,0.005 2.66972,0.11538 3.16723,0.57285 0.64926,0.59707 0.89998,1.82966 0.54692,2.68886 -0.15804,0.38462 -0.86756,1.12056 -1.1836,1.22769 -0.095,0.0322 0.17091,0.5478 0.72124,1.39828 0.47949,0.74098 0.87179,1.36741 0.87179,1.39206 0,0.0247 -0.37112,0.0439 -0.82471,0.0429 l -0.82472,-0.002 -0.72641,-1.14725 c -1.01343,-1.60055 -0.93104,-1.52668 -1.64733,-1.47691 l -0.61968,0.043 v 1.29251 1.29249 h -0.73308 -0.73308 z m 4.10908,-0.60351 c 0.37127,-0.43891 0.36929,-0.96537 -0.005,-1.40841 -0.27875,-0.32969 -0.35824,-0.35092 -1.46616,-0.39165 l -1.17143,-0.043 v 1.14495 1.14496 l 1.17675,-0.0523 c 1.1026,-0.049 1.19499,-0.0739 1.46616,-0.39446 z m 4.56615,4.14428 c 3.3e-4,-0.0341 0.65483,-1.65547 1.45443,-3.60288 l 1.45382,-3.54077 h 0.81356 0.81356 l 1.39238,3.39541 c 0.7658,1.86747 1.42155,3.48877 1.45721,3.60288 0.0562,0.1798 -0.0369,0.20526 -0.69741,0.19086 l -0.76224,-0.0171 -0.32734,-0.79092 -0.32734,-0.79092 -1.57304,-0.0345 -1.57303,-0.0345 -0.35996,0.82589 -0.35996,0.82588 -0.70262,0.0154 c -0.38644,0.009 -0.70235,-0.012 -0.70202,-0.0459 z m 4.52738,-3.44759 c -0.77546,-1.95852 -0.84106,-2.08732 -0.93347,-1.8325 -0.0495,0.13663 -0.29505,0.73765 -0.54553,1.33555 l -0.45543,1.08708 h 1.08404 1.08404 z m 5.61314,-0.16595 v -3.61357 l 1.98543,0.0417 c 1.93705,0.0408 2.00137,0.0507 2.64016,0.4105 1.32312,0.74519 1.92464,1.88921 1.82324,3.46757 -0.0694,1.08082 -0.37332,1.73087 -1.12275,2.40165 -0.82285,0.73651 -1.48943,0.90568 -3.5685,0.90568 h -1.75758 z m 3.74068,2.13352 c 0.72327,-0.33398 1.17643,-0.99294 1.24284,-1.80728 0.13939,-1.70836 -0.80503,-2.6677 -2.63153,-2.67334 l -0.88583,-0.003 v 2.36052 2.3605 l 0.88583,-0.003 c 0.59948,-0.002 1.04835,-0.0778 1.38869,-0.23495 z m 5.72829,-2.12283 v -3.6029 h 2.47415 2.47415 v 0.6212 0.62118 h -1.74106 -1.74108 v 0.86966 0.86966 h 1.4967 1.49672 v 0.6212 0.62118 h -1.51899 -1.51901 l 0.0223,0.86967 0.0222,0.86964 1.80214,2e-5 h 1.80217 v 0.6212 0.62118 h -2.53525 -2.53524 z m -61.273384,-8.77938 c -1.798193,-0.28797 -3.287593,-0.80189 -3.315155,-1.14385 -0.0088,-0.11109 -0.02271,-0.80285 -0.03055,-1.53708 l -0.01417,-1.33494 0.441577,-7e-4 c 0.413121,-7.1e-4 0.455568,0.0367 0.658716,0.57753 0.284814,0.75835 0.936892,1.47768 1.692379,1.86696 0.513137,0.2644 0.73752,0.30639 1.426307,0.2668 0.662621,-0.0381 0.901596,-0.11229 1.2622,-0.39195 1.00592,-0.78017 1.08098,-1.92963 0.18126,-2.77576 -0.15759,-0.14812 -1.108154,-0.671 -2.11239,-1.1618 -1.558619,-0.76174 -1.935586,-1.00417 -2.57539,-1.65623 -0.842577,-0.85872 -1.157932,-1.57428 -1.157932,-2.62743 0,-0.97922 0.31092,-1.72619 1.061755,-2.55085 1.542696,-1.69435 3.780094,-1.98658 6.421787,-0.83878 l 0.58036,0.25216 v 1.41344 1.41342 h -0.4083 c -0.3658,0 -0.42265,-0.0485 -0.54635,-0.46587 -0.31345,-1.0577 -1.59213,-2.01887 -2.685742,-2.01887 -1.809373,0 -2.688717,1.96908 -1.421889,3.18396 0.224548,0.21534 1.251068,0.81155 2.281156,1.32488 2.165825,1.07933 2.967895,1.72197 3.387735,2.71435 0.36474,0.86213 0.31572,2.13324 -0.11577,3.00208 -0.83144,1.67418 -3.09079,2.79604 -5.011513,2.48843 z m 9.896604,-0.72579 c 0,-0.3911 0.0492,-0.45586 0.4793,-0.63085 0.86447,-0.35172 0.86468,-0.35321 0.86468,-6.06469 v -5.0439 l -0.70254,7.2e-4 c -1.40084,0.001 -2.18641,0.45564 -2.655,1.53529 -0.24842,0.57238 -0.29589,0.61323 -0.72644,0.62528 l -0.46064,0.012 0.0756,-1.05603 c 0.0416,-0.58081 0.10735,-1.37747 0.14615,-1.77038 l 0.0705,-0.71436 h 5.66706 5.66705 l 0.0603,0.27953 c 0.0332,0.15377 0.0755,0.93652 0.094,1.73949 l 0.0336,1.45995 -0.44727,-1.6e-4 c -0.40851,-1.5e-4 -0.47012,-0.0482 -0.71084,-0.55377 -0.5063,-1.06367 -1.34783,-1.55648 -2.66001,-1.55789 l -0.64145,-7e-4 v 5.19033 c 0,5.80241 -0.0278,5.61246 0.85969,5.88281 0.45506,0.13869 0.4843,0.17637 0.4843,0.62483 v 0.47728 h -2.74906 -2.74905 z m 10.5075,-0.0415 c 0,-0.44887 0.029,-0.4861 0.48672,-0.62557 0.2677,-0.0816 0.54261,-0.25444 0.6109,-0.3842 0.0782,-0.14864 0.12418,-2.0966 0.12418,-5.26669 v -5.03093 l -0.3253,-0.26019 c -0.17892,-0.14315 -0.44849,-0.29163 -0.59905,-0.33005 -0.21463,-0.0547 -0.28373,-0.1763 -0.31998,-0.56282 -0.0254,-0.27114 -0.0216,-0.51801 0.009,-0.54863 0.0301,-0.0305 2.24483,-0.0557 4.9216,-0.0557 h 4.86684 v 1.41857 c 0,0.78022 0.0334,1.50701 0.0742,1.61508 0.0607,0.16098 -0.0235,0.19652 -0.46447,0.19652 -0.5293,0 -0.54303,-0.0103 -0.79251,-0.61102 -0.38488,-0.92634 -0.85052,-1.12038 -2.91644,-1.21533 l -1.64321,-0.0756 v 2.37967 2.37967 l 1.00798,-0.003 c 1.3692,-0.003 1.97217,-0.27517 2.18031,-0.98157 0.1386,-0.47035 0.18061,-0.50656 0.58809,-0.50663 l 0.43884,-7e-5 -0.0267,2.13812 -0.0267,2.13811 -0.36213,0.042 c -0.32656,0.0379 -0.38643,-0.0137 -0.60974,-0.52715 -0.32371,-0.74414 -0.75942,-0.93352 -2.14757,-0.93352 h -1.04246 v 2.3605 2.36052 l 1.49671,-7e-4 c 0.82319,-3.6e-4 1.71663,-0.0619 1.98543,-0.13664 0.5899,-0.16406 1.55055,-1.11994 1.78327,-1.77433 0.15075,-0.42391 0.18977,-0.44885 0.70229,-0.44885 h 0.54267 l -0.0797,0.77649 c -0.0438,0.42706 -0.14134,1.26567 -0.21666,1.86357 l -0.13697,1.08708 h -5.05454 -5.0545 z m 12.3402,-0.005 c 0,-0.46169 0.0216,-0.48859 0.45817,-0.57097 0.93541,-0.17651 0.88581,0.14007 0.88581,-5.65612 0,-4.90753 -0.0122,-5.19053 -0.2292,-5.39038 -0.12607,-0.11606 -0.42847,-0.2438 -0.672,-0.28398 -0.42025,-0.0694 -0.44278,-0.0975 -0.44278,-0.55376 v -0.4807 h 2.72174 2.72174 l -0.0456,0.4865 c -0.0356,0.38007 -0.10552,0.50179 -0.31937,0.55638 -0.15055,0.0384 -0.42013,0.18695 -0.59905,0.33004 l -0.3253,0.26019 -1.9e-4,5.24003 -2e-4,5.24 1.61908,-0.0684 c 1.16445,-0.0492 1.72549,-0.12584 1.99804,-0.27319 0.50257,-0.27162 1.12868,-1.01048 1.41601,-1.67099 0.21784,-0.50076 0.26305,-0.53431 0.71966,-0.53431 h 0.48721 l -0.0736,0.59012 c -0.0405,0.32458 -0.13986,1.17715 -0.22087,1.89462 l -0.14727,1.30449 -4.97599,0.0324 -4.976,0.0324 z m 11.97366,-10e-4 c 0,-0.45522 0.0251,-0.48791 0.43445,-0.566 0.23894,-0.0456 0.54134,-0.19158 0.67199,-0.32443 0.22743,-0.23125 0.23754,-0.45514 0.23754,-5.2564 0,-4.86218 -0.008,-5.02469 -0.24965,-5.33759 -0.14269,-0.18447 -0.4306,-0.35724 -0.67199,-0.40329 -0.39568,-0.0754 -0.42234,-0.11109 -0.42234,-0.5637 v -0.48312 h 2.68797 2.68797 v 0.48348 c 0,0.40315 -0.0475,0.49561 -0.28561,0.55638 -0.15705,0.0401 -0.43198,0.18997 -0.6109,0.33307 l -0.3253,0.2602 v 5.20895 5.20895 l 1.43562,-7e-4 c 0.78959,-3.5e-4 1.62805,-0.0552 1.86325,-0.12172 0.63926,-0.18087 1.25278,-0.7625 1.69576,-1.60763 0.38199,-0.72874 0.4123,-0.75474 0.87951,-0.75474 0.43883,0 0.47808,0.026 0.42154,0.27954 -0.0544,0.24308 -0.43103,3.30196 -0.43103,3.49892 0,0.0401 -2.25423,0.0729 -5.00939,0.0729 h -5.00939 z m 12.02125,0.3058 c -0.16256,-0.43047 0.015,-0.72265 0.55718,-0.92618 0.35556,-0.13303 0.61462,-0.33197 0.74876,-0.57495 0.11287,-0.2043 1.10524,-2.92864 2.20539,-6.05406 l 2.00027,-5.68257 1.10706,-0.001 1.10702,-10e-4 2.13076,5.79951 c 1.1822,3.21781 2.25638,5.95353 2.413,6.14552 0.1629,0.19959 0.46014,0.37996 0.70254,0.42621 0.39333,0.0751 0.42026,0.11109 0.42026,0.56329 v 0.48312 h -2.75643 -2.75644 l 0.0378,-0.46445 c 0.0347,-0.42561 0.074,-0.47035 0.46969,-0.53514 0.57273,-0.0938 0.72894,-0.20504 0.72894,-0.51907 0,-0.27799 -0.69291,-2.16222 -0.89313,-2.42867 -0.0899,-0.11966 -0.63775,-0.14984 -2.2565,-0.12429 l -2.13771,0.0338 -0.40304,1.05603 c -0.2217,0.58081 -0.40657,1.20778 -0.41086,1.3933 -0.008,0.37621 0.27711,0.59448 0.77838,0.59448 0.28427,0 0.31348,0.0463 0.31348,0.49696 v 0.49695 h -2.01981 c -1.63694,0 -2.0325,-0.0336 -2.08672,-0.17732 z m 7.39206,-6.18985 c -0.19257,-0.4954 -0.58681,-1.53039 -0.8761,-2.29999 l -0.526,-1.39926 -0.86318,2.29999 -0.86319,2.29998 h 1.73929 1.73929 z m 7.71071,5.934 c 0,-0.37124 0.0568,-0.45729 0.39708,-0.60194 0.73927,-0.31423 0.71333,-0.10732 0.70526,-5.62338 -0.008,-5.61119 0.0287,-5.35436 -0.8144,-5.66437 -0.36739,-0.13509 -0.41012,-0.19998 -0.41012,-0.62279 v -0.472 l 3.32939,0.002 c 3.55316,0.002 4.47104,0.10664 5.48518,0.62319 0.68188,0.34735 1.27748,0.9196 1.61201,1.54882 0.35464,0.66709 0.3733,2.50285 0.0322,3.16806 -0.45084,0.87909 -1.23433,1.51525 -2.3518,1.90952 l -0.39793,0.14041 1.34519,1.92569 c 1.88323,2.69581 1.9944,2.82622 2.55528,2.99709 0.4573,0.13938 0.48633,0.17665 0.48633,0.62545 v 0.47728 h -1.72261 -1.72258 l -0.32394,-0.35713 c -0.17816,-0.19644 -0.98002,-1.42639 -1.78192,-2.73323 l -1.45799,-2.37576 h -0.52741 -0.52743 v 1.89804 c 0,2.18675 0.0727,2.39954 0.86194,2.52789 0.46502,0.0756 0.48206,0.0953 0.48206,0.55945 v 0.48107 h -2.62689 -2.62686 z m 5.93744,-6.58284 c 1.09167,-0.32965 1.63773,-1.18748 1.63773,-2.57281 0,-0.89103 -0.20962,-1.43622 -0.72026,-1.87311 -0.49463,-0.4232 -1.08683,-0.58754 -2.12043,-0.58842 l -0.82472,-7e-4 v 2.609 2.60898 h 0.71091 c 0.39099,0 0.98354,-0.0823 1.31677,-0.18295 z m -28.78515,-12.31439 c -2.70038,-0.18799 -4.67205,-0.47246 -11.85148,-1.70987 -2.18398,-0.3764 -4.93303,-0.79774 -6.10901,-0.93629 -6.33542,-0.7464 -12.76967,-0.52819 -17.19687,0.5832 -0.75599,0.18978 -1.37425,0.315 -1.37391,0.27825 3.3e-4,-0.0367 0.37146,-0.3251 0.82471,-0.64076 3.62716,-2.52614 8.23754,-3.76556 14.59422,-3.92343 3.33009,-0.0827 5.40888,0.0485 9.6274,0.60751 3.73157,0.49451 6.01936,0.53762 7.27139,0.13701 1.06301,-0.34013 1.81167,-0.83659 2.64929,-1.75683 2.2991,-2.52589 2.40241,-5.74328 0.27118,-8.4457596 -0.93667,-1.18774 -2.15547,-2.10456 -4.49774,-3.38335 -1.14939,-0.62753 -2.77094,-1.51147 -3.60344,-1.964324 -1.55481,-0.845771 -2.57627,-1.64531 -2.88993,-2.26208496 -0.49004,-0.963583 0.0542,-2.02198504 1.39592,-2.71479904 0.93451,-0.482541 2.83979,-0.665491 5.12467,-0.492088 1.62752,0.123519 2.49593,0.348084 3.44218,0.890134 1.04638,0.59941604 5.28113,3.295125 7.19289,4.578778 l 1.72627,1.159094 v 8.2856696 8.28566 l 0.8247,0.10307 c 2.08072,0.26003 7.36578,0.0913 8.76643,-0.27988 l 0.24438,-0.0648 -0.24438,0.20281 c -0.50323,0.41766 -3.22864,1.68538 -4.64284,2.15961 -2.64846,0.8881 -4.8856,1.2338 -8.43043,1.3027 -1.34399,0.0261 -2.746,0.0264 -3.1156,7.1e-4 z m -26.6648,-14.3018796 -0.0316,-6.758186 -1.68648,1.365416 c -2.01259,1.62945 -1.62565,1.53456 -6.04008,1.4811 l -3.08371,-0.0373 2.41172,-1.93418 c 1.32644,-1.063795 5.18826,-4.14394496 8.58182,-6.844771 3.39355,-2.700828 8.53103,-6.790179 11.41661,-9.0874464 3.20585,-2.552245 5.29684,-4.137161 5.37592,-4.074806 0.0712,0.05613 3.29108,2.66777 7.1553,5.803651 3.86423,3.1358854 8.51014,6.9004604 10.32425,8.3657254 6.61573,5.343607 9.71283,7.854687 9.71293,7.875147 5e-5,0.0115 -1.69133,-0.007 -3.75862,-0.0412 l -3.75876,-0.0621 -3.84708,-3.163078 c -2.1159,-1.73967996 -5.27661,-4.341914 -7.02379,-5.782729 -7.4206,-6.119427 -8.99799,-7.4056214 -9.1379,-7.4509954 -0.0813,-0.02637 -1.76974,1.2760904 -3.75212,2.8943424 -3.86414,3.154377 -4.49199,3.806217 -5.00903,5.200388 -0.89627,2.41677804 -0.45085,4.698942 1.2558,6.434332 1.05976,1.0776 2.4145,1.94365 5.8226,3.72221 3.29837,1.72129 4.39136,2.4518996 4.9085,3.2810696 0.50364,0.80754 0.61856,1.31534 0.45088,1.99244 -0.26719,1.07896 -1.60757,2.04234 -3.58007,2.57311 -0.77009,0.20722 -1.42103,0.23143 -6.53664,0.24318 -5.82166,0.0134 -6.61417,0.0644 -9.31521,0.5997 l -0.82368,0.16324 z"
       id="path4" /><path
       style="display:none;fill:#000000;stroke-width:0.349241"
       d="m 105.54082,56.278448 c -0.72464,-0.1755 -1.48528,-0.73123 -1.83947,-1.34393 -0.33874,-0.58595 -0.3393,-0.5908 -0.37833,-3.28898 l -0.0391,-2.70218 h 0.74162 0.74163 v 2.46639 c 0,2.36204 0.0117,2.48424 0.27889,2.88852 0.55171,0.83512 1.8705,0.95504 2.53601,0.2306 0.44139,-0.48047 0.48396,-0.77643 0.48396,-3.36476 v -2.22075 h 0.74358 0.74359 l -0.0424,2.64007 c -0.0392,2.43897 -0.063,2.67934 -0.31241,3.15603 -0.65442,1.25063 -2.1865,1.89526 -3.65758,1.53899 z m 18.54693,-0.0103 c -2.36173,-0.49072 -3.66419,-2.84574 -2.82872,-5.11473 0.34933,-0.94873 0.86545,-1.51594 1.80792,-1.98686 0.75385,-0.37669 0.91207,-0.40921 1.98108,-0.40723 1.05128,0.002 1.24105,0.0401 1.99517,0.40139 0.58153,0.27855 0.80567,0.44686 0.74168,0.55691 -0.62162,1.06894 -0.6692,1.11833 -0.88559,0.9192 -0.83305,-0.76659 -2.75613,-0.75606 -3.59979,0.0197 -0.89939,0.82701 -0.93494,2.7798 -0.066,3.62656 0.69168,0.67403 1.65159,0.88749 2.73896,0.60908 l 0.54282,-0.13904 v -0.73903 -0.73902 l -0.8858,0.0394 -0.88581,0.0394 -0.0372,-0.59014 -0.0372,-0.59013 1.62558,-2e-5 1.62559,-1e-5 -0.0153,1.57661 c -0.0142,1.45684 -0.0354,1.59315 -0.27991,1.79444 -0.6974,0.57422 -2.49047,0.94092 -3.53732,0.72342 z m 45.2046,-0.0187 c -0.63839,-0.0999 -1.7196,-0.60229 -1.97823,-0.91917 -0.0909,-0.11143 -0.0547,-0.30072 0.12671,-0.66239 0.25468,-0.50761 0.41262,-0.61573 0.55566,-0.3804 0.0422,0.0693 0.28805,0.2357 0.54652,0.36978 1.38267,0.71726 2.69017,0.48963 2.69017,-0.46838 0,-0.36833 -0.34923,-0.6094 -1.65198,-1.14037 -0.80666,-0.32878 -1.34759,-0.63677 -1.63923,-0.93332 -0.41666,-0.42368 -0.4353,-0.48012 -0.4353,-1.31913 0,-0.86616 0.005,-0.88212 0.50124,-1.35193 0.87637,-0.83124 2.5044,-0.94302 3.81704,-0.26209 0.62721,0.32537 0.68037,0.42379 0.45623,0.84487 -0.35908,0.6746 -0.34496,0.66955 -0.96972,0.34791 -1.11656,-0.57477 -2.17567,-0.5155 -2.40764,0.13475 -0.18308,0.51321 0.12788,0.80829 1.42336,1.35061 0.6777,0.28369 1.39941,0.63692 1.60382,0.78492 0.83384,0.60373 1.00649,1.94431 0.36125,2.80454 -0.5195,0.69257 -1.69047,1.00475 -2.99995,0.79982 z m -56.46127,-3.65186 v -3.67592 l 1.92433,0.042 c 1.76281,0.0384 1.97562,0.0681 2.53524,0.35255 0.79799,0.40571 1.15591,1.02684 1.15871,2.01078 0.002,0.84274 -0.14472,1.28412 -0.58612,1.7585 -0.57215,0.61489 -0.94217,0.73531 -2.30767,0.75098 l -1.25629,0.0137 -10e-4,1.21132 -0.001,1.21132 h -0.73309 -0.73308 z m 3.86224,-0.31911 c 0.35168,-0.35762 0.43571,-1.20751 0.15357,-1.55345 -0.28079,-0.34428 -0.91386,-0.53915 -1.75155,-0.53915 h -0.7981 v 1.25796 1.25795 l 1.04472,-0.0557 c 0.91278,-0.0487 1.08345,-0.0952 1.35136,-0.36756 z m 14.46479,0.33003 v -3.66501 l 1.98543,0.005 c 2.06325,0.005 2.66972,0.11538 3.16723,0.57285 0.64926,0.59707 0.89998,1.82966 0.54692,2.68886 -0.15804,0.38462 -0.86756,1.12056 -1.1836,1.22769 -0.095,0.0322 0.17091,0.5478 0.72124,1.39828 0.47949,0.74098 0.87179,1.36741 0.87179,1.39206 0,0.0247 -0.37112,0.0439 -0.82471,0.0429 l -0.82472,-0.002 -0.72641,-1.14725 c -1.01343,-1.60055 -0.93104,-1.52668 -1.64733,-1.47691 l -0.61968,0.043 v 1.29251 1.29249 h -0.73308 -0.73308 z m 4.10908,-0.60351 c 0.37127,-0.43891 0.36929,-0.96537 -0.005,-1.40841 -0.27875,-0.32969 -0.35824,-0.35092 -1.46616,-0.39165 l -1.17143,-0.043 v 1.14495 1.14496 l 1.17675,-0.0523 c 1.1026,-0.049 1.19499,-0.0739 1.46616,-0.39446 z m 4.56615,4.14428 c 3.3e-4,-0.0341 0.65483,-1.65547 1.45443,-3.60288 l 1.45382,-3.54077 h 0.81356 0.81356 l 1.39238,3.39541 c 0.7658,1.86747 1.42155,3.48877 1.45721,3.60288 0.0562,0.1798 -0.0369,0.20526 -0.69741,0.19086 l -0.76224,-0.0171 -0.32734,-0.79092 -0.32734,-0.79092 -1.57304,-0.0345 -1.57303,-0.0345 -0.35996,0.82589 -0.35996,0.82588 -0.70262,0.0154 c -0.38644,0.009 -0.70235,-0.012 -0.70202,-0.0459 z m 4.52738,-3.44759 c -0.77546,-1.95852 -0.84106,-2.08732 -0.93347,-1.8325 -0.0495,0.13663 -0.29505,0.73765 -0.54553,1.33555 l -0.45543,1.08708 h 1.08404 1.08404 z m 5.61314,-0.16595 v -3.61357 l 1.98543,0.0417 c 1.93705,0.0408 2.00137,0.0507 2.64016,0.4105 1.32312,0.74519 1.92464,1.88921 1.82324,3.46757 -0.0694,1.08082 -0.37332,1.73087 -1.12275,2.40165 -0.82285,0.73651 -1.48943,0.90568 -3.5685,0.90568 h -1.75758 z m 3.74068,2.13352 c 0.72327,-0.33398 1.17643,-0.99294 1.24284,-1.80728 0.13939,-1.70836 -0.80503,-2.6677 -2.63153,-2.67334 l -0.88583,-0.003 v 2.36052 2.3605 l 0.88583,-0.003 c 0.59948,-0.002 1.04835,-0.0778 1.38869,-0.23495 z m 5.72829,-2.12283 v -3.6029 h 2.47415 2.47415 v 0.6212 0.62118 h -1.74106 -1.74108 v 0.86966 0.86966 h 1.4967 1.49672 v 0.6212 0.62118 h -1.51899 -1.51901 l 0.0223,0.86967 0.0222,0.86964 1.80214,2e-5 h 1.80217 v 0.6212 0.62118 h -2.53525 -2.53524 z m -61.273384,-8.77938 c -1.798193,-0.28797 -3.287593,-0.80189 -3.315155,-1.14385 -0.0088,-0.11109 -0.02271,-0.80285 -0.03055,-1.53708 l -0.01417,-1.33494 0.441577,-7e-4 c 0.413121,-7.1e-4 0.455568,0.0367 0.658716,0.57753 0.284814,0.75835 0.936892,1.47768 1.692379,1.86696 0.513137,0.2644 0.73752,0.30639 1.426307,0.2668 0.662621,-0.0381 0.901596,-0.11229 1.2622,-0.39195 1.00592,-0.78017 1.08098,-1.92963 0.18126,-2.77576 -0.15759,-0.14812 -1.108154,-0.671 -2.11239,-1.1618 -1.558619,-0.76174 -1.935586,-1.00417 -2.57539,-1.65623 -0.842577,-0.85872 -1.157932,-1.57428 -1.157932,-2.62743 0,-0.97922 0.31092,-1.72619 1.061755,-2.55085 1.542696,-1.69435 3.780094,-1.98658 6.421787,-0.83878 l 0.58036,0.25216 v 1.41344 1.41342 h -0.4083 c -0.3658,0 -0.42265,-0.0485 -0.54635,-0.46587 -0.31345,-1.0577 -1.59213,-2.01887 -2.685742,-2.01887 -1.809373,0 -2.688717,1.96908 -1.421889,3.18396 0.224548,0.21534 1.251068,0.81155 2.281156,1.32488 2.165825,1.07933 2.967895,1.72197 3.387735,2.71435 0.36474,0.86213 0.31572,2.13324 -0.11577,3.00208 -0.83144,1.67418 -3.09079,2.79604 -5.011513,2.48843 z m 9.896604,-0.72579 c 0,-0.3911 0.0492,-0.45586 0.4793,-0.63085 0.86447,-0.35172 0.86468,-0.35321 0.86468,-6.06469 v -5.0439 l -0.70254,7.2e-4 c -1.40084,0.001 -2.18641,0.45564 -2.655,1.53529 -0.24842,0.57238 -0.29589,0.61323 -0.72644,0.62528 l -0.46064,0.012 0.0756,-1.05603 c 0.0416,-0.58081 0.10735,-1.37747 0.14615,-1.77038 l 0.0705,-0.71436 h 5.66706 5.66705 l 0.0603,0.27953 c 0.0332,0.15377 0.0755,0.93652 0.094,1.73949 l 0.0336,1.45995 -0.44727,-1.6e-4 c -0.40851,-1.5e-4 -0.47012,-0.0482 -0.71084,-0.55377 -0.5063,-1.06367 -1.34783,-1.55648 -2.66001,-1.55789 l -0.64145,-7e-4 v 5.19033 c 0,5.80241 -0.0278,5.61246 0.85969,5.88281 0.45506,0.13869 0.4843,0.17637 0.4843,0.62483 v 0.47728 h -2.74906 -2.74905 z m 10.5075,-0.0415 c 0,-0.44887 0.029,-0.4861 0.48672,-0.62557 0.2677,-0.0816 0.54261,-0.25444 0.6109,-0.3842 0.0782,-0.14864 0.12418,-2.0966 0.12418,-5.26669 v -5.03093 l -0.3253,-0.26019 c -0.17892,-0.14315 -0.44849,-0.29163 -0.59905,-0.33005 -0.21463,-0.0547 -0.28373,-0.1763 -0.31998,-0.56282 -0.0254,-0.27114 -0.0216,-0.51801 0.009,-0.54863 0.0301,-0.0305 2.24483,-0.0557 4.9216,-0.0557 h 4.86684 v 1.41857 c 0,0.78022 0.0334,1.50701 0.0742,1.61508 0.0607,0.16098 -0.0235,0.19652 -0.46447,0.19652 -0.5293,0 -0.54303,-0.0103 -0.79251,-0.61102 -0.38488,-0.92634 -0.85052,-1.12038 -2.91644,-1.21533 l -1.64321,-0.0756 v 2.37967 2.37967 l 1.00798,-0.003 c 1.3692,-0.003 1.97217,-0.27517 2.18031,-0.98157 0.1386,-0.47035 0.18061,-0.50656 0.58809,-0.50663 l 0.43884,-7e-5 -0.0267,2.13812 -0.0267,2.13811 -0.36213,0.042 c -0.32656,0.0379 -0.38643,-0.0137 -0.60974,-0.52715 -0.32371,-0.74414 -0.75942,-0.93352 -2.14757,-0.93352 h -1.04246 v 2.3605 2.36052 l 1.49671,-7e-4 c 0.82319,-3.6e-4 1.71663,-0.0619 1.98543,-0.13664 0.5899,-0.16406 1.55055,-1.11994 1.78327,-1.77433 0.15075,-0.42391 0.18977,-0.44885 0.70229,-0.44885 h 0.54267 l -0.0797,0.77649 c -0.0438,0.42706 -0.14134,1.26567 -0.21666,1.86357 l -0.13697,1.08708 h -5.05454 -5.0545 z m 12.3402,-0.005 c 0,-0.46169 0.0216,-0.48859 0.45817,-0.57097 0.93541,-0.17651 0.88581,0.14007 0.88581,-5.65612 0,-4.90753 -0.0122,-5.19053 -0.2292,-5.39038 -0.12607,-0.11606 -0.42847,-0.2438 -0.672,-0.28398 -0.42025,-0.0694 -0.44278,-0.0975 -0.44278,-0.55376 v -0.4807 h 2.72174 2.72174 l -0.0456,0.4865 c -0.0356,0.38007 -0.10552,0.50179 -0.31937,0.55638 -0.15055,0.0384 -0.42013,0.18695 -0.59905,0.33004 l -0.3253,0.26019 -1.9e-4,5.24003 -2e-4,5.24 1.61908,-0.0684 c 1.16445,-0.0492 1.72549,-0.12584 1.99804,-0.27319 0.50257,-0.27162 1.12868,-1.01048 1.41601,-1.67099 0.21784,-0.50076 0.26305,-0.53431 0.71966,-0.53431 h 0.48721 l -0.0736,0.59012 c -0.0405,0.32458 -0.13986,1.17715 -0.22087,1.89462 l -0.14727,1.30449 -4.97599,0.0324 -4.976,0.0324 z m 11.97366,-10e-4 c 0,-0.45522 0.0251,-0.48791 0.43445,-0.566 0.23894,-0.0456 0.54134,-0.19158 0.67199,-0.32443 0.22743,-0.23125 0.23754,-0.45514 0.23754,-5.2564 0,-4.86218 -0.008,-5.02469 -0.24965,-5.33759 -0.14269,-0.18447 -0.4306,-0.35724 -0.67199,-0.40329 -0.39568,-0.0754 -0.42234,-0.11109 -0.42234,-0.5637 v -0.48312 h 2.68797 2.68797 v 0.48348 c 0,0.40315 -0.0475,0.49561 -0.28561,0.55638 -0.15705,0.0401 -0.43198,0.18997 -0.6109,0.33307 l -0.3253,0.2602 v 5.20895 5.20895 l 1.43562,-7e-4 c 0.78959,-3.5e-4 1.62805,-0.0552 1.86325,-0.12172 0.63926,-0.18087 1.25278,-0.7625 1.69576,-1.60763 0.38199,-0.72874 0.4123,-0.75474 0.87951,-0.75474 0.43883,0 0.47808,0.026 0.42154,0.27954 -0.0544,0.24308 -0.43103,3.30196 -0.43103,3.49892 0,0.0401 -2.25423,0.0729 -5.00939,0.0729 h -5.00939 z m 12.02125,0.3058 c -0.16256,-0.43047 0.015,-0.72265 0.55718,-0.92618 0.35556,-0.13303 0.61462,-0.33197 0.74876,-0.57495 0.11287,-0.2043 1.10524,-2.92864 2.20539,-6.05406 l 2.00027,-5.68257 1.10706,-0.001 1.10702,-10e-4 2.13076,5.79951 c 1.1822,3.21781 2.25638,5.95353 2.413,6.14552 0.1629,0.19959 0.46014,0.37996 0.70254,0.42621 0.39333,0.0751 0.42026,0.11109 0.42026,0.56329 v 0.48312 h -2.75643 -2.75644 l 0.0378,-0.46445 c 0.0347,-0.42561 0.074,-0.47035 0.46969,-0.53514 0.57273,-0.0938 0.72894,-0.20504 0.72894,-0.51907 0,-0.27799 -0.69291,-2.16222 -0.89313,-2.42867 -0.0899,-0.11966 -0.63775,-0.14984 -2.2565,-0.12429 l -2.13771,0.0338 -0.40304,1.05603 c -0.2217,0.58081 -0.40657,1.20778 -0.41086,1.3933 -0.008,0.37621 0.27711,0.59448 0.77838,0.59448 0.28427,0 0.31348,0.0463 0.31348,0.49696 v 0.49695 h -2.01981 c -1.63694,0 -2.0325,-0.0336 -2.08672,-0.17732 z m 7.39206,-6.18985 c -0.19257,-0.4954 -0.58681,-1.53039 -0.8761,-2.29999 l -0.526,-1.39926 -0.86318,2.29999 -0.86319,2.29998 h 1.73929 1.73929 z m 7.71071,5.934 c 0,-0.37124 0.0568,-0.45729 0.39708,-0.60194 0.73927,-0.31423 0.71333,-0.10732 0.70526,-5.62338 -0.008,-5.61119 0.0287,-5.35436 -0.8144,-5.66437 -0.36739,-0.13509 -0.41012,-0.19998 -0.41012,-0.62279 v -0.472 l 3.32939,0.002 c 3.55316,0.002 4.47104,0.10664 5.48518,0.62319 0.68188,0.34735 1.27748,0.9196 1.61201,1.54882 0.35464,0.66709 0.3733,2.50285 0.0322,3.16806 -0.45084,0.87909 -1.23433,1.51525 -2.3518,1.90952 l -0.39793,0.14041 1.34519,1.92569 c 1.88323,2.69581 1.9944,2.82622 2.55528,2.99709 0.4573,0.13938 0.48633,0.17665 0.48633,0.62545 v 0.47728 h -1.72261 -1.72258 l -0.32394,-0.35713 c -0.17816,-0.19644 -0.98002,-1.42639 -1.78192,-2.73323 l -1.45799,-2.37576 h -0.52741 -0.52743 v 1.89804 c 0,2.18675 0.0727,2.39954 0.86194,2.52789 0.46502,0.0756 0.48206,0.0953 0.48206,0.55945 v 0.48107 h -2.62689 -2.62686 z m 5.93744,-6.58284 c 1.09167,-0.32965 1.63773,-1.18748 1.63773,-2.57281 0,-0.89103 -0.20962,-1.43622 -0.72026,-1.87311 -0.49463,-0.4232 -1.08683,-0.58754 -2.12043,-0.58842 l -0.82472,-7e-4 v 2.609 2.60898 h 0.71091 c 0.39099,0 0.98354,-0.0823 1.31677,-0.18295 z m -28.78515,-12.31439 c -2.70038,-0.18799 -4.67205,-0.47246 -11.85148,-1.70987 -2.18398,-0.3764 -4.93303,-0.79774 -6.10901,-0.93629 -6.33542,-0.7464 -12.76967,-0.52819 -17.19687,0.5832 -0.75599,0.18978 -1.37425,0.315 -1.37391,0.27825 3.3e-4,-0.0367 0.37146,-0.3251 0.82471,-0.64076 3.62716,-2.52614 8.23754,-3.76556 14.59422,-3.92343 3.33009,-0.0827 5.40888,0.0485 9.6274,0.60751 3.73157,0.49451 6.01936,0.53762 7.27139,0.13701 1.06301,-0.34013 1.81167,-0.83659 2.64929,-1.75683 2.2991,-2.52589 2.40241,-5.74328 0.27118,-8.4457596 -0.93667,-1.18774 -2.15547,-2.10456 -4.49774,-3.38335 -1.14939,-0.62753 -2.77094,-1.51147 -3.60344,-1.964324 -1.55481,-0.845771 -2.57627,-1.64531 -2.88993,-2.26208496 -0.49004,-0.963583 0.0542,-2.02198504 1.39592,-2.71479904 0.93451,-0.482541 2.83979,-0.665491 5.12467,-0.492088 1.62752,0.123519 2.49593,0.348084 3.44218,0.890134 1.04638,0.59941604 5.28113,3.295125 7.19289,4.578778 l 1.72627,1.159094 v 8.2856696 8.28566 l 0.8247,0.10307 c 2.08072,0.26003 7.36578,0.0913 8.76643,-0.27988 l 0.24438,-0.0648 -0.24438,0.20281 c -0.50323,0.41766 -3.22864,1.68538 -4.64284,2.15961 -2.64846,0.8881 -4.8856,1.2338 -8.43043,1.3027 -1.34399,0.0261 -2.746,0.0264 -3.1156,7.1e-4 z m -26.6648,-14.3018796 -0.0316,-6.758186 -1.68648,1.365416 c -2.01259,1.62945 -1.62565,1.53456 -6.04008,1.4811 l -3.08371,-0.0373 2.41172,-1.93418 c 1.32644,-1.063795 5.18826,-4.14394496 8.58182,-6.844771 3.39355,-2.700828 8.53103,-6.790179 11.41661,-9.0874464 3.20585,-2.552245 5.29684,-4.137161 5.37592,-4.074806 0.0712,0.05613 3.29108,2.66777 7.1553,5.803651 3.86423,3.1358854 8.51014,6.9004604 10.32425,8.3657254 6.61573,5.343607 9.71283,7.854687 9.71293,7.875147 5e-5,0.0115 -1.69133,-0.007 -3.75862,-0.0412 l -3.75876,-0.0621 -3.84708,-3.163078 c -2.1159,-1.73967996 -5.27661,-4.341914 -7.02379,-5.782729 -7.4206,-6.119427 -8.99799,-7.4056214 -9.1379,-7.4509954 -0.0813,-0.02637 -1.76974,1.2760904 -3.75212,2.8943424 -3.86414,3.154377 -4.49199,3.806217 -5.00903,5.200388 -0.89627,2.41677804 -0.45085,4.698942 1.2558,6.434332 1.05976,1.0776 2.4145,1.94365 5.8226,3.72221 3.29837,1.72129 4.39136,2.4518996 4.9085,3.2810696 0.50364,0.80754 0.61856,1.31534 0.45088,1.99244 -0.26719,1.07896 -1.60757,2.04234 -3.58007,2.57311 -0.77009,0.20722 -1.42103,0.23143 -6.53664,0.24318 -5.82166,0.0134 -6.61417,0.0644 -9.31521,0.5997 l -0.82368,0.16324 z"
       id="path5" /><path
       style="display:inline;fill:#000000;stroke-width:0.367524"
       d="m 90.295132,102.28147 c -0.796796,-0.17676 -1.633177,-0.73646 -2.022636,-1.35354 -0.372481,-0.59014 -0.373085,-0.59503 -0.416013,-3.312502 l -0.04299,-2.721502 h 0.815478 0.815466 v 2.484026 c 0,2.378929 0.01286,2.501999 0.306661,2.909168 0.606658,0.8411 2.056766,0.96188 2.788544,0.23225 0.485341,-0.4839 0.532151,-0.781979 0.532151,-3.388814 v -2.23663 h 0.817621 0.817622 l -0.04663,2.658948 c -0.04311,2.456406 -0.06928,2.698496 -0.343508,3.178596 -0.719594,1.25958 -2.404231,1.90881 -4.021794,1.55 z m 20.393738,-0.0104 c -2.59689,-0.49422 -4.02905,-2.866089 -3.11039,-5.1513 0.38412,-0.955513 0.95162,-1.52678 1.98794,-2.001067 0.82893,-0.379383 1.0029,-0.412136 2.17834,-0.410142 1.15596,0.002 1.36463,0.04039 2.19385,0.404261 0.63944,0.280541 0.8859,0.450055 0.81554,0.560892 -0.68352,1.076583 -0.73584,1.126327 -0.97378,0.925773 -0.91601,-0.772072 -3.03057,-0.761467 -3.95823,0.01984 -0.98895,0.832923 -1.02804,2.799674 -0.0726,3.652493 0.76054,0.67885 1.81605,0.89384 3.01169,0.61343 l 0.59687,-0.14003 v -0.74431 -0.744308 l -0.97401,0.0397 -0.974,0.0397 -0.0409,-0.594351 -0.0409,-0.594356 1.78745,-1.9e-5 1.78746,-1e-5 -0.0169,1.587886 c -0.0156,1.467258 -0.039,1.604538 -0.30778,1.807268 -0.76684,0.57833 -2.73845,0.94765 -3.88954,0.7286 z m 49.70585,-0.0188 c -0.70195,-0.10061 -1.89083,-0.6066 -2.17521,-0.92574 -0.1,-0.11223 -0.0601,-0.30287 0.13933,-0.66713 0.28003,-0.51124 0.4537,-0.62013 0.61098,-0.38312 0.0464,0.0698 0.31673,0.23739 0.60095,0.37243 1.52035,0.72239 2.95804,0.49312 2.95804,-0.47174 0,-0.370959 -0.38401,-0.613749 -1.81648,-1.148513 -0.88698,-0.331138 -1.48178,-0.641329 -1.80245,-0.940001 -0.45816,-0.426705 -0.47865,-0.483549 -0.47865,-1.328558 0,-0.872354 0.006,-0.888428 0.55115,-1.361597 0.96364,-0.837184 2.75377,-0.949764 4.19712,-0.263964 0.68967,0.327696 0.74812,0.42682 0.50166,0.850911 -0.39484,0.679423 -0.37931,0.674338 -1.06628,0.350398 -1.22773,-0.578881 -2.39231,-0.519186 -2.64738,0.135713 -0.20131,0.516879 0.14062,0.81407 1.5651,1.360268 0.74518,0.285718 1.53875,0.641478 1.76351,0.790538 0.91688,0.608041 1.10671,1.958205 0.39723,2.824585 -0.57123,0.69753 -1.8588,1.01194 -3.29867,0.80554 z M 98.311308,98.574285 v -3.702204 l 2.115952,0.0423 c 1.93835,0.03867 2.17235,0.06859 2.78769,0.355071 0.87744,0.40861 1.271,1.034182 1.27408,2.025158 0.002,0.848762 -0.15913,1.293306 -0.64448,1.771069 -0.62912,0.619292 -1.03598,0.740572 -2.53747,0.756352 l -1.381376,0.0138 -0.0011,1.219979 -0.0011,1.21999 H 99.117486 98.31141 Z m 4.246832,-0.321395 c 0.3867,-0.360173 0.47909,-1.216141 0.16886,-1.564554 -0.30874,-0.346741 -1.00487,-0.543005 -1.92597,-0.543005 h -0.877559 v 1.266955 1.266948 l 1.148749,-0.05612 c 1.00366,-0.04905 1.19134,-0.09588 1.48592,-0.370191 z m 15.90512,0.332398 v -3.691221 l 2.18314,0.0051 c 2.26869,0.0051 2.93555,0.116205 3.4826,0.576947 0.71391,0.601339 0.9896,1.842743 0.60138,2.708086 -0.17378,0.387369 -0.95394,1.128571 -1.30146,1.236461 -0.10446,0.0325 0.18793,0.55172 0.79306,1.408279 0.52724,0.74628 0.9586,1.37719 0.9586,1.40202 0,0.0249 -0.40807,0.0442 -0.90683,0.0432 l -0.90684,-0.002 -0.79874,-1.15546 c -1.11434,-1.611989 -1.02375,-1.537599 -1.81136,-1.487469 l -0.68139,0.0433 v 1.301739 1.30174 h -0.80608 -0.80608 z m 4.51825,-0.60783 c 0.40824,-0.442048 0.40606,-0.972273 -0.006,-1.418481 -0.3065,-0.332047 -0.39391,-0.353429 -1.61215,-0.39445 l -1.28808,-0.04331 v 1.153137 1.15315 l 1.29393,-0.05268 c 1.21239,-0.04934 1.31398,-0.07444 1.61215,-0.397283 z m 5.02082,4.173912 c 3.7e-4,-0.0344 0.72004,-1.66731 1.59925,-3.628639 l 1.59859,-3.56609 h 0.89457 0.89457 l 1.53103,3.419693 c 0.84205,1.880826 1.5631,3.513716 1.60231,3.628636 0.0618,0.18109 -0.0406,0.20673 -0.76685,0.19223 l -0.83814,-0.0173 -0.35994,-0.79657 -0.35993,-0.79658 -1.72968,-0.0347 -1.72967,-0.0347 -0.3958,0.8318 -0.3958,0.83179 -0.77259,0.0155 c -0.42492,0.01 -0.77228,-0.0121 -0.77192,-0.0462 z m 4.9782,-3.472241 c -0.85268,-1.972523 -0.92481,-2.102244 -1.02643,-1.845602 -0.0544,0.137607 -0.32443,0.742925 -0.59984,1.345096 l -0.50079,1.094848 h 1.19199 1.19198 z m 6.17206,-0.167134 v -3.639411 l 2.18313,0.042 c 2.12993,0.04109 2.20066,0.05107 2.90306,0.413435 1.45487,0.750519 2.11628,1.902719 2.00479,3.492361 -0.0763,1.088551 -0.4105,1.74325 -1.23455,2.41883 -0.90479,0.74178 -1.63774,0.91216 -3.92383,0.91216 h -1.9326 z m 4.11316,2.148775 c 0.79529,-0.33637 1.29357,-1.000039 1.36659,-1.820205 0.15328,-1.720575 -0.88519,-2.686774 -2.89356,-2.692454 l -0.97403,-0.0031 v 2.377397 2.377372 l 0.97403,-0.003 c 0.65917,-0.002 1.15274,-0.0784 1.52697,-0.23663 z m 6.29868,-2.13801 v -3.628663 h 2.72052 2.72051 v 0.625642 0.625622 h -1.91442 -1.91445 v 0.875878 0.875879 h 1.64574 1.64574 v 0.625642 0.62562 h -1.67024 -1.67026 l 0.0246,0.87589 0.0244,0.87586 1.98158,2e-5 h 1.98162 v 0.62564 0.62563 h -2.78769 -2.78768 z"
       id="path6"
       sodipodi:nodetypes="ssscccscsscccscsscsssscssssccccccccccccccsssssssscssssssscccccccscccccccssscccssscccsssssccssccccccccccccscccscccsscccccccccccssscccscccssssccccccccsccccccccccccccccccccccccccc" /></g></svg>
